<?xml version="1.0" encoding="UTF-8" standalone="no"?>
<svg
   enable-background="new 0 0 24 24"
   height="19.200001"
   viewBox="0 0 19.200001 19.200001"
   width="19.200001"
   fill="#ffffff"
   version="1.1"
   id="svg31"
   sodipodi:docname="account-icon.svg"
   inkscape:version="1.2.2 (732a01da63, 2022-12-09)"
   xmlns:inkscape="http://www.inkscape.org/namespaces/inkscape"
   xmlns:sodipodi="http://sodipodi.sourceforge.net/DTD/sodipodi-0.dtd"
   xmlns="http://www.w3.org/2000/svg"
   xmlns:svg="http://www.w3.org/2000/svg">
  <defs
     id="defs35" />
  <sodipodi:namedview
     id="namedview33"
     pagecolor="#ffffff"
     bordercolor="#000000"
     borderopacity="0.25"
     inkscape:showpageshadow="2"
     inkscape:pageopacity="0.0"
     inkscape:pagecheckerboard="0"
     inkscape:deskcolor="#d1d1d1"
     showgrid="false"
     inkscape:zoom="32.291667"
     inkscape:cx="11.984516"
     inkscape:cy="12"
     inkscape:window-width="1920"
     inkscape:window-height="991"
     inkscape:window-x="-9"
     inkscape:window-y="-9"
     inkscape:window-maximized="1"
     inkscape:current-layer="svg31" />
  <g
     id="g25">
    <rect
       fill="none"
       height="24"
       width="24"
       id="rect23"
       x="0"
       y="0" />
  </g>
  <g
     id="g29"
     transform="matrix(0.96,0,0,0.96,-1.92,-1.92)">
    <path
       d="M 12,2 C 6.48,2 2,6.48 2,12 2,17.52 6.48,22 12,22 17.52,22 22,17.52 22,12 22,6.48 17.52,2 12,2 Z m 0,4 c 1.93,0 3.5,1.57 3.5,3.5 C 15.5,11.43 13.93,13 12,13 10.07,13 8.5,11.43 8.5,9.5 8.5,7.57 10.07,6 12,6 Z m 0,14 C 9.97,20 7.57,19.18 5.86,17.12 7.55,15.8 9.68,15 12,15 c 2.32,0 4.45,0.8 6.14,2.12 C 16.43,19.18 14.03,20 12,20 Z"
       id="path27" />
  </g>
</svg>
