<?xml version="1.0" encoding="UTF-8" standalone="no"?>
<svg
   width="15"
   height="13"
   viewBox="0 0 15 13"
   fill="none"
   version="1.1"
   id="svg37"
   sodipodi:docname="dislike-icon.svg"
   inkscape:version="1.2.2 (732a01da63, 2022-12-09)"
   xmlns:inkscape="http://www.inkscape.org/namespaces/inkscape"
   xmlns:sodipodi="http://sodipodi.sourceforge.net/DTD/sodipodi-0.dtd"
   xmlns="http://www.w3.org/2000/svg"
   xmlns:svg="http://www.w3.org/2000/svg">
  <defs
     id="defs41" />
  <sodipodi:namedview
     id="namedview39"
     pagecolor="#ffffff"
     bordercolor="#000000"
     borderopacity="0.25"
     inkscape:showpageshadow="2"
     inkscape:pageopacity="0.0"
     inkscape:pagecheckerboard="0"
     inkscape:deskcolor="#d1d1d1"
     showgrid="false"
     inkscape:zoom="64"
     inkscape:cx="9.515625"
     inkscape:cy="2.3359375"
     inkscape:window-width="1920"
     inkscape:window-height="991"
     inkscape:window-x="-9"
     inkscape:window-y="-9"
     inkscape:window-maximized="1"
     inkscape:current-layer="svg37" />
  <path
     id="dislike"
     d="M0.144196 0.769779L1.04542 1.5683C0.392934 2.21671 0 3.07912 0 4.04693C0 6.58624 2.54867 8.62408 6.40952 11.7671L7.5018 12.6327L8.59048 11.7639C9.33309 11.1602 10.0288 10.5948 10.6633 10.0614L13.987 13L14.8522 12.2334L1.01658 0L0.144196 0.769779ZM15 4.04373C15 1.97076 13.2012 0.367322 10.876 0.367322C9.56381 0.367322 8.32733 0.900737 7.5018 1.76953C6.67628 0.900737 5.4398 0.367322 4.12761 0.367322C3.8248 0.367322 3.5328 0.396069 3.25162 0.447174L12.3973 8.53145C14.0375 6.97592 15 5.60565 15 4.04373Z"
     fill="black"
     style="fill:#ffffff" />
  <path
     style="fill:#ffffff;stroke-width:0.0167742"
     d="m 12.334194,11.522713 c -0.902355,-0.798669 -1.649047,-1.45579 -1.659316,-1.460268 -0.01027,-0.0045 -0.180127,0.126252 -0.377461,0.290513 -0.5339413,0.444451 -1.7333089,1.420428 -2.2982053,1.870149 L 7.5022945,12.618709 6.9557035,12.186121 C 6.1458996,11.545219 4.7899142,10.435954 4.076129,9.8304831 2.6550336,8.6250328 1.71858,7.6968468 1.1136854,6.8941935 0.4963926,6.0750889 0.15963653,5.3411542 0.04810272,4.5718358 0.01790606,4.3635506 0.01407731,4.2769529 0.02138672,3.9675794 0.03445864,3.4143047 0.11846347,3.0527501 0.34303209,2.5832258 0.51115388,2.2317196 0.69440287,1.9599593 0.94227898,1.6945361 1.0447478,1.5848133 1.0597049,1.5616074 1.0383295,1.5455137 1.0244046,1.5350295 0.82184977,1.3568435 0.58820771,1.1495446 L 0.16340399,0.77263762 0.24622597,0.6966414 C 0.29177806,0.65484346 0.48377485,0.48404646 0.67288552,0.31709251 L 1.0167231,0.01353986 3.1125551,1.8667245 C 4.2652628,2.885976 5.85,4.2872903 6.6341935,4.9807563 c 1.2657951,1.1193483 3.347183,2.9597269 6.5000005,5.7473487 0.558161,0.493508 1.167873,1.032421 1.354916,1.197584 0.187043,0.165162 0.338011,0.305472 0.335484,0.3118 -0.0074,0.01845 -0.823857,0.73735 -0.837441,0.73735 -0.0068,0 -0.750604,-0.653457 -1.652959,-1.452126 z"
     id="path358" />
  <path
     style="fill:#ffffff;stroke-width:0.0167742"
     d="M 10.734408,7.0485381 C 8.8444628,5.3764724 6.826658,3.5925119 4.7272991,1.7375961 L 3.2733079,0.45290323 3.3937507,0.43349663 C 3.9508669,0.34373019 4.5927789,0.36575385 5.1916129,0.49518032 5.4080632,0.54196191 5.8471063,0.68716195 6.0737495,0.78691994 6.538526,0.99149356 6.9860827,1.288696 7.354414,1.6373522 7.4313,1.7101312 7.5020751,1.7696774 7.5116922,1.7696774 c 0.00962,0 0.031414,-0.016984 0.048437,-0.037742 0.065212,-0.07952 0.2913655,-0.2806293 0.4545286,-0.4041941 0.6371976,-0.48255495 1.3810662,-0.78704557 2.2259872,-0.9111722 0.281145,-0.0413027 0.971284,-0.0413916 1.266452,-1.6315e-4 1.611634,0.22511025 2.860238,1.19102265 3.311217,2.56153585 0.192889,0.5861834 0.223831,1.1943833 0.09299,1.8278646 -0.180395,0.8734223 -0.687618,1.7599475 -1.573957,2.7509677 -0.155139,0.1734618 -0.926383,0.9566386 -0.940756,0.9553123 -0.0049,-4.496e-4 -0.752851,-0.659046 -1.662185,-1.4635484 z"
     id="path360" />
</svg>
