<?xml version="1.0" encoding="UTF-8" standalone="no"?>
<svg
   width="15"
   height="15"
   viewBox="0 0 15 15"
   fill="none"
   version="1.1"
   id="svg19"
   sodipodi:docname="setting-icon.svg"
   inkscape:version="1.2.2 (732a01da63, 2022-12-09)"
   xmlns:inkscape="http://www.inkscape.org/namespaces/inkscape"
   xmlns:sodipodi="http://sodipodi.sourceforge.net/DTD/sodipodi-0.dtd"
   xmlns="http://www.w3.org/2000/svg"
   xmlns:svg="http://www.w3.org/2000/svg">
  <defs
     id="defs23" />
  <sodipodi:namedview
     id="namedview21"
     pagecolor="#ffffff"
     bordercolor="#000000"
     borderopacity="0.25"
     inkscape:showpageshadow="2"
     inkscape:pageopacity="0.0"
     inkscape:pagecheckerboard="0"
     inkscape:deskcolor="#d1d1d1"
     showgrid="false"
     inkscape:zoom="48.4375"
     inkscape:cx="7.9896774"
     inkscape:cy="8"
     inkscape:window-width="1920"
     inkscape:window-height="991"
     inkscape:window-x="-9"
     inkscape:window-y="-9"
     inkscape:window-maximized="1"
     inkscape:current-layer="svg19" />
  <path
     d="m 9.0613,12.6136 c 0.22355,-0.6008 0.732,-1.0227 1.3233,-1.0227 0.5914,0 1.0998,0.4219 1.3233,1.0227 h 2.7152 c 0.3173,0 0.5769,0.3069 0.5769,0.6819 0,0.375 -0.2596,0.6818 -0.5769,0.6818 H 11.7079 C 11.4844,14.5781 10.976,15 10.3846,15 9.7933,15 9.28485,14.5781 9.0613,13.9773 H 0.57692 C 0.259615,13.9773 0,13.6705 0,13.2955 0,12.9205 0.259615,12.6136 0.57692,12.6136 Z M 3.29207,6.81818 C 3.51563,6.21733 4.02404,5.79545 4.61538,5.79545 c 0.59135,0 1.09976,0.42188 1.32332,1.02273 h 8.4844 C 14.7404,6.81818 15,7.125 15,7.5 15,7.875 14.7404,8.18182 14.4231,8.18182 H 5.9387 C 5.71514,8.78267 5.20673,9.20455 4.61538,9.20455 4.02404,9.20455 3.51563,8.78267 3.29207,8.18182 H 0.57692 C 0.259615,8.18182 0,7.875 0,7.5 0,7.125 0.259615,6.81818 0.57692,6.81818 Z M 9.0613,1.02273 C 9.28485,0.421875 9.7933,0 10.3846,0 c 0.5914,0 1.0998,0.421875 1.3233,1.02273 h 2.7152 c 0.3173,0 0.5769,0.30682 0.5769,0.68182 0,0.375 -0.2596,0.68181 -0.5769,0.68181 H 11.7079 C 11.4844,2.98722 10.976,3.40909 10.3846,3.40909 9.7933,3.40909 9.28485,2.98722 9.0613,2.38636 H 0.57692 C 0.259615,2.38636 0,2.07955 0,1.70455 0,1.32955 0.259615,1.02273 0.57692,1.02273 Z"
     fill="#ffffff"
     id="path17" />
</svg>
